#!OML:ASF H:\Dans Jumps\Project 1\Capture day 1\Session 1\subject.ASF
:FULLY-SPECIFIED
:DEGREES
61
root 0.471117 15.681 -15.8807 13.9203 -2.36031 -2.68704
lowerback 14.7412 -0.105382 0.102186
upperback 6.20798 -0.0539406 2.6812
thorax -1.70254 -0.0630965 2.75646
lowerneck -15.772 1.50652 -0.877135
upperneck 21.9767 2.94038 -2.56543
head 9.58581 0.992095 -0.367161
rclavicle -1.45113e-014 -1.19271e-014
rhumerus -14.6444 -5.65594 -78.7543
rradius 36.9716
rwrist 17.8245
rhand -21.4122 -26.517
rfingers 7.12502
rthumb 4.97638 -56.4386
lclavicle -1.45113e-014 -1.19271e-014
lhumerus -14.3884 -9.08092 83.3738
lradius 34.8561
lwrist 21.1952
lhand -29.8365 -5.19615
lfingers 7.12502
lthumb -3.1596 24.7602
rfemur -51.891 -2.57602 21.9843
rtibia 61.8986
rfoot -22.4807 -4.91462
rtoes 1.87322
lfemur -51.0117 10.7652 -19.5978
ltibia 62.6355
lfoot -22.2933 9.13758
ltoes -4.12465
62
root 0.472879 15.6207 -15.9057 14.2039 -2.39139 -2.68916
lowerback 15.0028 -0.0987745 0.0725784
upperback 6.26287 -0.0468404 2.67519
thorax -1.78407 -0.060047 2.76809
lowerneck -15.875 1.53362 -0.847533
upperneck 21.6545 2.979 -2.63826
head 9.49408 1.00877 -0.391653
rclavicle -5.96354e-015 1.17283e-014
rhumerus -15.518 -6.00023 -78.5621
rradius 36.6484
rwrist 18.1242
rhand -21.2682 -26.4282
rfingers 7.12502
rthumb 5.11541 -56.3465
lclavicle -5.96354e-015 1.17283e-014
lhumerus -15.1716 -8.84491 83.4096
lradius 34.4025
lwrist 21.0218
lhand -29.8033 -5.20175
lfingers 7.12502
lthumb -3.12754 24.7551
rfemur -52.8025 -2.50902 21.9917
rtibia 62.7578
rfoot -22.7102 -5.03292
rtoes 1.77931
lfemur -51.9199 10.7073 -19.6601
ltibia 63.5019
lfoot -22.4868 9.34434
ltoes -4.22151
63
root 0.474726 15.5597 -15.9298 14.4972 -2.42844 -2.69122
lowerback 15.2534 -0.0916964 0.0441713
upperback 6.31681 -0.0394065 2.66611
thorax -1.86055 -0.0568006 2.77563
lowerneck -15.983 1.56323 -0.810309
upperneck 21.3334 3.02133 -2.72149
head 9.40441 1.02661 -0.420424
rclavicle -1.15295e-014 1.05356e-014
rhumerus -16.4144 -6.32587 -78.3684
rradius 36.3
rwrist 18.4007
rhand -21.1231 -26.3072
rfingers 7.12502
rthumb 5.25546 -56.222
lclavicle -1.15295e-014 1.05356e-014
lhumerus -15.9828 -8.61403 83.4537
lradius 33.9425
lwrist 20.9201
lhand -29.7603 -5.10558
lfingers 7.12502
lthumb -3.08596 24.8518
rfemur -53.664 -2.4384 21.9961
rtibia 63.4335
rfoot -22.8164 -5.11224
rtoes 1.72891
lfemur -52.7775 10.6541 -19.7238
ltibia 64.183
lfoot -22.5613 9.50602
ltoes -4.31735
64
root 0.476611 15.498 -15.9533 14.7996 -2.465 -2.69009
lowerback 15.4972 -0.0871787 0.0130909
upperback 6.36999 -0.0360201 2.65492
thorax -1.93376 -0.0555785 2.78308
lowerneck -16.0797 1.59407 -0.780231
upperneck 20.9971 3.06532 -2.80203
head 9.30757 1.04542 -0.446882
rclavicle 8.34896e-015 -3.37934e-015
rhumerus -17.3217 -6.62594 -78.1791
rradius 35.9334
rwrist 18.6242
rhand -20.9572 -26.2218
rfingers 7.12502
rthumb 5.41566 -56.1326
lclavicle 8.34896e-015 -3.37934e-015
lhumerus -16.8146 -8.39075 83.5051
lradius 33.4697
lwrist 20.8834
lhand -29.7402 -4.97745
lfingers 7.12502
lthumb -3.06659 24.9802
rfemur -54.5371 -2.37219 21.9966
rtibia 64.1108
rfoot -22.9182 -5.18159
rtoes 1.7018
lfemur -53.6457 10.598 -19.7912
ltibia 64.864
lfoot -22.6331 9.66804
ltoes -4.41459
